<svg width="170" height="85" viewBox="0 0 170 85" fill="none" xmlns="http://www.w3.org/2000/svg">
<path d="M50.0689 57.384H53.9055C54.6646 57.384 55.2314 57.416 55.6041 57.4788C55.9777 57.5418 56.3111 57.6733 56.6057 57.8734C56.9005 58.074 57.146 58.3408 57.3419 58.6731C57.5388 59.0062 57.6367 59.3794 57.6367 59.7922C57.6367 60.2405 57.5158 60.6519 57.2731 61.0253C57.0313 61.4005 56.7028 61.6807 56.2879 61.8679C56.873 62.0376 57.3225 62.3269 57.6367 62.7359C57.9509 63.1449 58.1084 63.626 58.1084 64.1781C58.1084 64.6137 58.0067 65.0362 57.8043 65.4478C57.601 65.8587 57.3235 66.1872 56.9728 66.4327C56.6212 66.6783 56.1879 66.8297 55.6724 66.8862C55.3491 66.9211 54.5709 66.9428 53.3355 66.9513H50.0683V57.384M52.0074 58.9768V61.1886H53.2775C54.0321 61.1886 54.5018 61.1785 54.685 61.1568C55.0163 61.1175 55.2776 61.0032 55.467 60.8136C55.6566 60.6246 55.7517 60.3754 55.7517 60.067C55.7517 59.7711 55.6702 59.5302 55.5062 59.3458C55.3424 59.1604 55.0987 59.0481 54.7764 59.0088C54.584 58.9879 54.0319 58.9768 53.1198 58.9768H52.0074ZM52.0074 62.7814V65.3389H53.8013C54.499 65.3389 54.9422 65.3198 55.13 65.2806C55.4173 65.2284 55.6518 65.1016 55.8333 64.8989C56.0144 64.6962 56.1053 64.4261 56.1053 64.0867C56.1053 63.7991 56.0356 63.5553 55.8955 63.3557C55.7562 63.1556 55.5541 63.0096 55.2901 62.9185C55.0264 62.8271 54.4534 62.7816 53.5713 62.7816H52.0074V62.7814Z" fill="#3E5DB3"/>
<path d="M61.6791 57.384H59.8393V66.9511H61.6791V57.384Z" fill="#3E5DB3"/>
<path d="M65.0468 62.1351L63.3765 61.8348C63.5643 61.1649 63.8876 60.6691 64.3463 60.3469C64.8041 60.0246 65.4854 59.8638 66.3884 59.8638C67.2089 59.8638 67.8205 59.9606 68.2215 60.1542C68.6225 60.3487 68.9054 60.594 69.0694 60.8917C69.2336 61.1901 69.315 61.737 69.315 62.5328L69.2958 64.6733C69.2958 65.2833 69.325 65.7323 69.3836 66.0216C69.4432 66.31 69.553 66.6202 69.7142 66.9509H67.8948C67.8463 66.8293 67.7878 66.6488 67.7181 66.4095C67.687 66.3008 67.665 66.2289 67.6523 66.1941C67.3381 66.499 67.0021 66.7271 66.6441 66.8797C66.2858 67.031 65.9042 67.1077 65.4985 67.1077C64.7823 67.1077 64.2183 66.9143 63.8062 66.5264C63.3935 66.1403 63.1873 65.6502 63.1873 65.0586C63.1873 64.6669 63.2806 64.3183 63.4694 64.0115C63.6572 63.705 63.9199 63.4694 64.2577 63.307C64.5957 63.1438 65.0838 63.0002 65.7209 62.8789C66.5807 62.718 67.1759 62.5677 67.5083 62.4288V62.2462C67.5083 61.8938 67.4205 61.6419 67.2464 61.4922C67.0715 61.3416 66.742 61.2667 66.2574 61.2667C65.9307 61.2667 65.675 61.3308 65.4921 61.4596C65.3087 61.5884 65.1605 61.813 65.0468 62.1351ZM67.5083 63.623C67.2721 63.7015 66.8995 63.7957 66.3884 63.9034C65.8784 64.0127 65.5442 64.1186 65.3865 64.2239C65.1466 64.3936 65.0266 64.6089 65.0266 64.87C65.0266 65.1266 65.123 65.3483 65.3152 65.5355C65.5064 65.7227 65.7509 65.8157 66.0488 65.8157C66.3804 65.8157 66.696 65.707 66.9974 65.49C67.22 65.3247 67.3664 65.122 67.436 64.8829C67.4845 64.7259 67.5083 64.4284 67.5083 63.9884V63.623Z" fill="#3E5DB3"/>
<path d="M75.8117 66.9513V65.9133C75.5591 66.2838 75.2258 66.5751 74.8136 66.7877C74.4017 67.0012 73.9657 67.1081 73.508 67.1081C73.0411 67.1081 72.6217 67.0061 72.2508 66.8015C71.8798 66.597 71.6115 66.3094 71.4457 65.9398C71.2791 65.5701 71.1967 65.059 71.1967 64.4064V60.0203H73.0363V63.2051C73.0363 64.18 73.0702 64.777 73.138 64.997C73.2049 65.2172 73.3285 65.3905 73.508 65.5193C73.6867 65.648 73.9136 65.712 74.1883 65.712C74.5025 65.712 74.7843 65.6262 75.0335 65.4545C75.2815 65.283 75.4519 65.0695 75.5436 64.8148C75.6351 64.5602 75.6809 63.9366 75.6809 62.9445V60.0201H77.5204V66.9513H75.8117Z" fill="#3E5DB3"/>
<path d="M82.9379 62.566H79.3236V64.4H82.9379V62.566Z" fill="#3E5DB3"/>
<path d="M88.583 63.4342V61.8221H92.7602V65.6331C92.3538 66.0248 91.7658 66.3696 90.9958 66.6673C90.2255 66.9658 89.4454 67.1146 88.6551 67.1146C87.6515 67.1146 86.7762 66.9044 86.0298 66.4845C85.2835 66.0648 84.7224 65.465 84.3476 64.6836C83.9722 63.9024 83.7846 63.0534 83.7846 62.1351C83.7846 61.1391 83.9934 60.2539 84.4128 59.4789C84.8322 58.7047 85.4446 58.1105 86.2524 57.6971C86.8676 57.3803 87.6343 57.2206 88.5509 57.2206C89.7423 57.2206 90.6725 57.4698 91.3427 57.9682C92.0129 58.4666 92.4432 59.1548 92.6357 60.0338L90.7109 60.3925C90.5754 59.9223 90.3218 59.5518 89.9482 59.2798C89.5755 59.0079 89.1094 58.8718 88.5509 58.8718C87.704 58.8718 87.031 59.1393 86.531 59.6752C86.031 60.21 85.7809 61.0041 85.7809 62.0566C85.7809 63.1923 86.0347 64.0437 86.5411 64.6115C87.0475 65.1792 87.7105 65.463 88.5309 65.463C88.9364 65.463 89.3441 65.3835 89.7523 65.2249C90.1598 65.066 90.5096 64.8744 90.8026 64.647V63.434H88.583" fill="#3E5DB3"/>
<path d="M98.6674 64.7458L100.5 65.0524C100.265 65.7224 99.8935 66.2327 99.3844 66.5822C98.8762 66.9326 98.2397 67.1079 97.476 67.1079C96.2673 67.1079 95.3726 66.7146 94.7922 65.927C94.3345 65.2961 94.1045 64.5 94.1045 63.5381C94.1045 62.3897 94.4057 61.4906 95.0085 60.8398C95.6108 60.189 96.3719 59.864 97.2931 59.864C98.3278 59.864 99.1435 60.2043 99.7417 60.8853C100.34 61.5664 100.625 62.6095 100.6 64.0145H95.9901C96.0038 64.5586 96.1522 64.9821 96.4361 65.2842C96.719 65.5864 97.0724 65.7369 97.4964 65.7369C97.784 65.7369 98.0267 65.6594 98.2226 65.5022C98.4194 65.3454 98.5676 65.0934 98.6674 64.7458ZM98.7728 62.8917C98.7601 62.3615 98.6228 61.958 98.3609 61.6816C98.0988 61.4058 97.7793 61.2671 97.4048 61.2671C97.0029 61.2671 96.6716 61.4133 96.4095 61.7043C96.1476 61.9964 96.0185 62.3917 96.0232 62.8919H98.7728V62.8917Z" fill="#3E5DB3"/>
<path d="M104.045 57.384H102.206V66.9511H104.045V57.384Z" fill="#3E5DB3"/>
<path d="M105.959 66.9513V57.384H107.799V60.8299C108.367 60.1864 109.039 59.8641 109.815 59.8641C110.662 59.8641 111.363 60.1701 111.917 60.7816C112.471 61.3921 112.748 62.2703 112.748 63.4142C112.748 64.598 112.466 65.5092 111.901 66.1489C111.335 66.7878 110.65 67.1083 109.842 67.1083C109.444 67.1083 109.052 67.0098 108.667 66.8118C108.28 66.6137 107.947 66.3206 107.668 65.9335V66.9515H105.959M107.786 63.3365C107.786 64.0539 107.9 64.5851 108.127 64.9283C108.444 65.4158 108.869 65.6596 109.397 65.6596C109.802 65.6596 110.149 65.4871 110.434 65.1403C110.72 64.7951 110.863 64.2492 110.863 63.5052C110.863 62.7139 110.719 62.1433 110.431 61.7928C110.143 61.4424 109.774 61.2671 109.324 61.2671C108.883 61.2671 108.517 61.438 108.225 61.7802C107.933 62.1216 107.786 62.6399 107.786 63.3365Z" fill="#3E5DB3"/>
<path d="M118.361 64.7458L120.194 65.0524C119.959 65.7224 119.586 66.2327 119.078 66.5822C118.57 66.9326 117.934 67.1079 117.17 67.1079C115.961 67.1079 115.065 66.7146 114.486 65.927C114.027 65.2961 113.798 64.5 113.798 63.5381C113.798 62.3897 114.1 61.4906 114.702 60.8398C115.305 60.189 116.066 59.864 116.987 59.864C118.021 59.864 118.837 60.2043 119.435 60.8853C120.033 61.5664 120.319 62.6095 120.292 64.0145H115.684C115.698 64.5586 115.845 64.9821 116.129 65.2842C116.413 65.5864 116.766 65.7369 117.19 65.7369C117.477 65.7369 117.72 65.6594 117.916 65.5022C118.113 65.3454 118.261 65.0934 118.361 64.7458ZM118.467 62.8917C118.453 62.3615 118.316 61.958 118.054 61.6816C117.792 61.4058 117.473 61.2671 117.098 61.2671C116.697 61.2671 116.365 61.4133 116.103 61.7043C115.841 61.9964 115.712 62.3917 115.717 62.8919H118.467V62.8917Z" fill="#3E5DB3"/>
<path d="M121.251 64.9741L123.097 64.6937C123.176 65.0508 123.335 65.3217 123.575 65.5061C123.815 65.6904 124.151 65.7834 124.583 65.7834C125.059 65.7834 125.417 65.6959 125.658 65.5216C125.818 65.4002 125.899 65.2377 125.899 65.0324C125.899 64.8937 125.855 64.7786 125.768 64.6864C125.677 64.5997 125.472 64.5194 125.153 64.4455C123.669 64.1186 122.728 63.8211 122.332 63.551C121.781 63.1776 121.507 62.6572 121.507 61.9918C121.507 61.3913 121.744 60.8863 122.22 60.4773C122.695 60.0683 123.434 59.864 124.433 59.864C125.385 59.864 126.091 60.0183 126.554 60.3277C127.016 60.6361 127.335 61.0934 127.51 61.6977L125.775 62.0171C125.701 61.748 125.561 61.5407 125.353 61.3974C125.146 61.2541 124.85 61.182 124.465 61.182C123.981 61.182 123.634 61.2494 123.425 61.3847C123.285 61.4805 123.215 61.6049 123.215 61.7563C123.215 61.8869 123.276 61.9982 123.399 62.0894C123.564 62.2108 124.138 62.3833 125.117 62.6051C126.097 62.8269 126.781 63.0989 127.169 63.4201C127.553 63.747 127.745 64.2015 127.745 64.7849C127.745 65.4203 127.479 65.966 126.947 66.4225C126.414 66.8799 125.626 67.1079 124.583 67.1079C123.637 67.1079 122.887 66.9163 122.334 66.5338C121.783 66.1516 121.422 65.6313 121.251 64.9741Z" fill="#3E5DB3"/>
<path d="M133.336 66.9513V57.384H135.273V61.6322L139.188 57.384H141.794L138.18 61.1101L141.99 66.9513H139.483L136.845 62.4611L135.273 64.0602V66.9513H133.336Z" fill="#3E5DB3"/>
<path d="M144.847 66.9513H143.007V60.0201H144.716V61.006C145.008 60.5407 145.272 60.2337 145.505 60.0862C145.738 59.9382 146.003 59.8641 146.3 59.8641C146.719 59.8641 147.122 59.9793 147.511 60.2101L146.942 61.8086C146.632 61.6085 146.343 61.5091 146.078 61.5091C145.821 61.5091 145.601 61.5793 145.423 61.721C145.243 61.8623 145.103 62.118 145.001 62.4877C144.898 62.8575 144.847 63.6323 144.847 64.8108V66.9513" fill="#3E5DB3"/>
<path d="M152.437 64.7458L154.27 65.0524C154.034 65.7224 153.662 66.2327 153.154 66.5822C152.646 66.9326 152.009 67.1079 151.246 67.1079C150.036 67.1079 149.142 66.7146 148.561 65.927C148.103 65.2961 147.874 64.5 147.874 63.5381C147.874 62.3897 148.175 61.4906 148.777 60.8398C149.379 60.189 150.141 59.864 151.063 59.864C152.096 59.864 152.913 60.2043 153.51 60.8853C154.108 61.5664 154.395 62.6095 154.368 64.0145H149.76C149.773 64.5586 149.921 64.9821 150.205 65.2842C150.489 65.5864 150.842 65.7369 151.265 65.7369C151.554 65.7369 151.796 65.6594 151.992 65.5022C152.188 65.3454 152.336 65.0934 152.437 64.7458ZM152.541 62.8917C152.529 62.3615 152.391 61.958 152.129 61.6816C151.867 61.4058 151.549 61.2671 151.174 61.2671C150.772 61.2671 150.44 61.4133 150.178 61.7043C149.916 61.9964 149.788 62.3917 149.793 62.8919H152.541V62.8917Z" fill="#3E5DB3"/>
<path d="M160.551 66.9513V65.9133C160.297 66.2838 159.965 66.5751 159.552 66.7877C159.14 67.0012 158.705 67.1081 158.246 67.1081C157.779 67.1081 157.36 67.0061 156.989 66.8015C156.618 66.597 156.35 66.3094 156.184 65.9398C156.018 65.5701 155.935 65.059 155.935 64.4064V60.0203H157.775V63.2051C157.775 64.18 157.808 64.777 157.876 64.997C157.944 65.2172 158.067 65.3905 158.246 65.5193C158.425 65.648 158.652 65.712 158.928 65.712C159.242 65.712 159.523 65.6262 159.772 65.4545C160.021 65.283 160.19 65.0695 160.283 64.8148C160.375 64.5602 160.42 63.9366 160.42 62.9445V60.0201H162.26V66.9513H160.551Z" fill="#3E5DB3"/>
<path d="M163.533 66.9513V65.5217L166.138 62.5398C166.565 62.0533 166.882 61.7073 167.087 61.5018C166.873 61.5155 166.592 61.5248 166.243 61.5282L163.787 61.5411V60.0203H169.536V61.3194L166.878 64.3736L165.942 65.3849C166.452 65.3547 166.769 65.3394 166.89 65.3394H169.739V66.9515H163.533" fill="#3E5DB3"/>
<path d="M49.7135 77.9676V72.1769H51.7142C52.1657 72.1769 52.511 72.2043 52.7481 72.2599C53.0815 72.3356 53.3654 72.4744 53.6006 72.6743C53.9065 72.9326 54.1363 73.2621 54.2884 73.6637C54.4394 74.0654 54.5155 74.5246 54.5155 75.0403C54.5155 75.4803 54.4643 75.8698 54.3615 76.2095C54.2581 76.5491 54.1262 76.8301 53.9651 77.0529C53.8038 77.2756 53.6271 77.4509 53.4358 77.5777C53.2446 77.7055 53.0128 77.8023 52.7426 77.8688C52.4716 77.9344 52.1603 77.9674 51.8097 77.9674H49.7135M50.4819 77.284H51.7227C52.1056 77.284 52.406 77.2486 52.6239 77.1771C52.842 77.1061 53.0158 77.0067 53.1451 76.8768C53.3272 76.6953 53.4694 76.4515 53.5707 76.1447C53.6725 75.8382 53.7238 75.4656 53.7238 75.0284C53.7238 74.4231 53.624 73.9577 53.4241 73.6316C53.2246 73.3068 52.9827 73.0886 52.6972 72.9781C52.4912 72.8998 52.1597 72.8605 51.7027 72.8605H50.4819V77.284Z" fill="#3E5DB3"/>
<path d="M58.4529 76.6168L59.1902 76.7072C59.0739 77.1359 58.8586 77.4692 58.5436 77.7066C58.2294 77.9437 57.8274 78.0614 57.3393 78.0614C56.723 78.0614 56.236 77.8736 55.8751 77.4954C55.5143 77.1176 55.3342 76.5874 55.3342 75.9054C55.3342 75.1997 55.5163 74.6522 55.8808 74.2625C56.2451 73.8728 56.7186 73.6774 57.2989 73.6774C57.8623 73.6774 58.3219 73.868 58.6781 74.2506C59.0353 74.6323 59.213 75.1687 59.213 75.8615C59.213 75.9036 59.212 75.9674 59.2091 76.0516H56.071C56.0976 76.5123 56.2275 76.8648 56.4629 77.1103C56.6984 77.3549 56.9914 77.4773 57.3429 77.4773C57.6048 77.4773 57.8272 77.4088 58.0121 77.2718C58.1977 77.1353 58.3441 76.9161 58.4529 76.6168ZM56.1106 75.4676H58.4604C58.4293 75.1144 58.3394 74.8495 58.191 74.6733C57.9639 74.3994 57.6692 74.2627 57.3076 74.2627C56.9797 74.2627 56.704 74.3712 56.4815 74.5904C56.2582 74.8084 56.1346 75.1005 56.1106 75.4676Z" fill="#3E5DB3"/>
<path d="M62.9327 77.9676V77.3515C62.6047 77.8253 62.1597 78.0616 61.5967 78.0616C61.3486 78.0616 61.1169 78.0151 60.9017 77.9203C60.6864 77.8255 60.5261 77.7057 60.4219 77.5626C60.3175 77.4191 60.2442 77.243 60.202 77.035C60.1727 76.8962 60.159 76.6745 60.159 76.3714V73.7728H60.8724V76.0995C60.8724 76.471 60.8859 76.721 60.9152 76.8499C60.9602 77.0371 61.0553 77.184 61.2009 77.2909C61.3455 77.3968 61.526 77.4505 61.7395 77.4505C61.9537 77.4505 62.1542 77.3958 62.3418 77.2863C62.5296 77.1768 62.6623 77.0288 62.74 76.84C62.8178 76.6518 62.8571 76.379 62.8571 76.0202V73.773H63.5695V77.9682H62.9327" fill="#3E5DB3"/>
<path d="M66.3343 77.3313L66.4369 77.9596C66.2366 78.0016 66.0569 78.0224 65.8984 78.0224C65.6393 78.0224 65.4386 77.9815 65.2958 77.9002C65.1529 77.8189 65.0531 77.7112 64.9945 77.5779C64.937 77.4457 64.9075 77.1653 64.9075 76.739V74.3255H64.3845V73.7724H64.9075V72.7337L65.6171 72.3072V73.7724H66.3339V74.3255H65.6171V76.7782C65.6171 76.9809 65.629 77.1115 65.6546 77.1689C65.6793 77.2273 65.7205 77.2738 65.7772 77.3078C65.8341 77.3414 65.9155 77.3589 66.0209 77.3589C66.1009 77.3589 66.2053 77.3499 66.3343 77.3313Z" fill="#3E5DB3"/>
<path d="M66.8353 76.7154L67.5414 76.6049C67.5808 76.8861 67.6917 77.1025 67.872 77.2528C68.0535 77.4026 68.3061 77.4775 68.631 77.4775C68.959 77.4775 69.2017 77.4108 69.36 77.2786C69.5185 77.1451 69.5979 76.9893 69.5979 76.8104C69.5979 76.6496 69.5276 76.5228 69.3872 76.4316C69.2901 76.3676 69.0466 76.2875 68.6585 76.1896C68.1355 76.058 67.7728 75.9441 67.5705 75.8482C67.3692 75.7524 67.2151 75.619 67.1117 75.4493C67.0065 75.2794 66.955 75.0912 66.955 74.8861C66.955 74.6999 66.9972 74.5262 67.0833 74.3666C67.1693 74.2077 67.2856 74.0753 67.434 73.9696C67.5449 73.8883 67.6959 73.8189 67.8881 73.7623C68.0798 73.7057 68.2847 73.6776 68.5034 73.6776C68.8342 73.6776 69.1243 73.7251 69.3733 73.8199C69.6235 73.9147 69.8075 74.0425 69.9266 74.2049C70.0457 74.3666 70.1271 74.584 70.1719 74.8551L69.4751 74.9491C69.443 74.7337 69.3515 74.5648 69.1995 74.4443C69.0476 74.3227 68.8334 74.2627 68.5557 74.2627C68.228 74.2627 67.9946 74.3164 67.8542 74.4241C67.7141 74.5318 67.6434 74.6586 67.6434 74.8038C67.6434 74.8962 67.6727 74.9781 67.7312 75.0519C67.789 75.1288 67.8797 75.1916 68.004 75.242C68.0755 75.2683 68.2853 75.3287 68.6343 75.4235C69.1387 75.558 69.4912 75.6673 69.6901 75.753C69.8896 75.839 70.0461 75.9632 70.16 76.1264C70.2735 76.2897 70.3302 76.4926 70.3302 76.7353C70.3302 76.9716 70.2606 77.1953 70.1225 77.4044C69.9841 77.6133 69.7834 77.776 69.5217 77.8899C69.2608 78.0048 68.965 78.0614 68.6345 78.0614C68.0878 78.0614 67.6713 77.9493 67.3845 77.7218C67.098 77.4956 66.9149 77.1598 66.8353 76.7154Z" fill="#3E5DB3"/>
<path d="M74.0142 76.4316L74.7155 76.5219C74.6385 77.0038 74.4427 77.3806 74.1269 77.6536C73.8109 77.9255 73.4236 78.0616 72.964 78.0616C72.3881 78.0616 71.9245 77.8746 71.5747 77.4994C71.225 77.1244 71.0501 76.5857 71.0501 75.8857C71.0501 75.4328 71.125 75.0366 71.2755 74.6963C71.4265 74.3577 71.6555 74.1021 71.963 73.9322C72.2708 73.7625 72.6058 73.6777 72.9676 73.6777C73.4248 73.6777 73.7981 73.7937 74.0895 74.0235C74.3797 74.2536 74.5665 74.5813 74.6478 75.0048L73.9546 75.1115C73.8888 74.8295 73.7715 74.6177 73.6039 74.4754C73.4363 74.3329 73.2329 74.2629 72.9959 74.2629C72.636 74.2629 72.3441 74.3905 72.1195 74.6471C71.8952 74.9046 71.7827 75.3108 71.7827 75.8667C71.7827 76.4299 71.8915 76.8388 72.1076 77.0954C72.3247 77.35 72.6068 77.4777 72.9557 77.4777C73.2358 77.4777 73.4692 77.3919 73.657 77.2212C73.845 77.0493 73.9639 76.7864 74.0142 76.4316Z" fill="#3E5DB3"/>
<path d="M75.4153 77.9676V72.1769H76.1277V74.2542C76.4611 73.8702 76.8813 73.6775 77.3886 73.6775C77.6999 73.6775 77.9699 73.7385 78.2009 73.8619C78.4297 73.9833 78.5945 74.1532 78.6934 74.3696C78.7934 74.5847 78.8428 74.898 78.8428 75.3088V77.9678H78.1294V75.3088C78.1294 74.9539 78.0517 74.6945 77.8968 74.533C77.7428 74.3714 77.5241 74.2903 77.2412 74.2903C77.0295 74.2903 76.8319 74.345 76.6451 74.4535C76.4591 74.563 76.3262 74.711 76.2469 74.898C76.1681 75.0851 76.1277 75.3436 76.1277 75.6731V77.9678H75.4153" fill="#3E5DB3"/>
<path d="M81.9315 75.5141H79.7402V76.2297H81.9315V75.5141Z" fill="#3E5DB3"/>
<path d="M86.7121 72.1769H87.4813V75.5221C87.4813 76.1045 87.4144 76.5664 87.2828 76.9088C87.1507 77.2512 86.9128 77.5294 86.5676 77.744C86.2233 77.9585 85.7701 78.0662 85.2104 78.0662C84.6656 78.0662 84.2206 77.973 83.8755 77.786C83.5284 77.5988 83.282 77.3277 83.1338 76.9736C82.9864 76.6194 82.9121 76.1357 82.9121 75.5224V72.1771H83.6806V75.5189C83.6806 76.0217 83.7283 76.3923 83.8216 76.6304C83.9159 76.8688 84.0762 77.0521 84.3052 77.182C84.534 77.3108 84.8134 77.3746 85.143 77.3746C85.7088 77.3746 86.1118 77.2468 86.3517 76.9922C86.5924 76.7365 86.7125 76.2456 86.7125 75.5191V72.1769" fill="#3E5DB3"/>
<path d="M88.7625 77.9676V72.1769H89.4757V75.4785L91.1642 73.7726H92.0874L90.4787 75.3287L92.2494 77.9676H91.3704L89.9795 75.8225L89.4757 76.3046V77.9676H88.7625Z" fill="#3E5DB3"/>
<path d="M92.8978 77.9676V73.7724H93.5395V74.4086C93.7032 74.1109 93.8545 73.9147 93.9928 73.8197C94.1321 73.7249 94.285 73.6774 94.4516 73.6774C94.6915 73.6774 94.9358 73.7541 95.1842 73.9064L94.9388 74.5663C94.764 74.4642 94.5899 74.4121 94.415 74.4121C94.2592 74.4121 94.1202 74.4586 93.9954 74.5528C93.8711 74.6458 93.7822 74.7754 93.7301 74.9417C93.6503 75.1945 93.611 75.4708 93.611 75.7714V77.9674H92.8978" fill="#3E5DB3"/>
<path d="M98.4432 77.4501C98.1795 77.6737 97.9249 77.8317 97.6804 77.9239C97.4368 78.0161 97.1739 78.0616 96.8939 78.0616C96.4323 78.0616 96.0761 77.9495 95.8289 77.724C95.5797 77.4994 95.4561 77.212 95.4561 76.8615C95.4561 76.6562 95.5028 76.468 95.5963 76.2983C95.6906 76.1284 95.8132 75.9923 95.9652 75.8893C96.1162 75.787 96.2885 75.7093 96.4779 75.6564C96.618 75.62 96.8294 75.5843 97.1126 75.5495C97.6876 75.4811 98.1117 75.4 98.3835 75.3051C98.3871 75.2081 98.3881 75.1463 98.3881 75.1198C98.3881 74.8293 98.3203 74.6258 98.1856 74.507C98.0035 74.3466 97.7325 74.2661 97.3736 74.2661C97.0384 74.2661 96.7903 74.3245 96.631 74.4414C96.4706 74.5592 96.3525 74.7665 96.2756 75.064L95.5787 74.9692C95.6419 74.6717 95.7463 74.4316 95.8919 74.2482C96.0365 74.0656 96.2473 73.9249 96.5221 73.8255C96.7969 73.7271 97.1146 73.6777 97.4772 73.6777C97.8361 73.6777 98.1282 73.7196 98.3526 73.8045C98.5769 73.8885 98.7419 73.9944 98.8481 74.1222C98.9533 74.25 99.0274 74.4114 99.0696 74.6059C99.0935 74.7275 99.1054 74.9454 99.1054 75.2613V76.2097C99.1054 76.8706 99.1211 77.2886 99.1512 77.464C99.1815 77.6393 99.2417 77.8072 99.3315 77.9678H98.5864C98.5119 77.8196 98.4653 77.6473 98.4432 77.4501ZM98.3837 75.8617C98.1256 75.9676 97.7371 76.0572 97.2188 76.1312C96.9258 76.1731 96.719 76.2198 96.597 76.2725C96.4755 76.3257 96.3818 76.4022 96.3159 76.5034C96.2501 76.6059 96.217 76.718 96.217 76.8422C96.217 77.031 96.2885 77.189 96.4331 77.3158C96.5758 77.4418 96.7875 77.5056 97.0649 77.5056C97.3387 77.5056 97.5832 77.4456 97.7975 77.3251C98.0117 77.2055 98.1684 77.0411 98.2692 76.8339C98.3461 76.6733 98.3837 76.436 98.3837 76.1232V75.8617Z" fill="#3E5DB3"/>
<path d="M100.304 72.9948V72.1769H101.017V72.9948H100.304ZM100.304 77.9676V73.7724H101.017V77.9676H100.304Z" fill="#3E5DB3"/>
<path d="M102.192 77.9676V73.7724H102.834V74.3694C103.144 73.9084 103.589 73.6776 104.174 73.6776C104.427 73.6776 104.661 73.723 104.873 73.8144C105.086 73.9046 105.245 74.0234 105.35 74.1713C105.456 74.3193 105.53 74.4944 105.573 74.6961C105.599 74.8283 105.612 75.0586 105.612 75.3879V77.9674H104.899V75.4153C104.899 75.126 104.87 74.9086 104.815 74.7655C104.76 74.6222 104.661 74.5081 104.521 74.4223C104.379 74.3366 104.213 74.2935 104.024 74.2935C103.719 74.2935 103.458 74.3903 103.237 74.5821C103.016 74.7748 102.905 75.1389 102.905 75.6765V77.9678H102.192" fill="#3E5DB3"/>
<path d="M106.799 72.9948V72.1769H107.512V72.9948H106.799ZM106.799 77.9676V73.7724H107.512V77.9676H106.799Z" fill="#3E5DB3"/>
<path d="M108.401 76.7154L109.107 76.6049C109.147 76.8861 109.257 77.1025 109.438 77.2528C109.619 77.4026 109.872 77.4775 110.197 77.4775C110.525 77.4775 110.767 77.4108 110.926 77.2786C111.084 77.1451 111.164 76.9893 111.164 76.8104C111.164 76.6496 111.093 76.5228 110.953 76.4316C110.856 76.3676 110.612 76.2875 110.224 76.1896C109.701 76.058 109.339 75.9441 109.136 75.8482C108.935 75.7524 108.781 75.619 108.677 75.4493C108.572 75.2794 108.521 75.0912 108.521 74.8861C108.521 74.6999 108.563 74.5262 108.649 74.3666C108.735 74.2077 108.852 74.0753 109 73.9696C109.111 73.8883 109.262 73.8189 109.454 73.7623C109.645 73.7057 109.851 73.6776 110.069 73.6776C110.4 73.6776 110.69 73.7251 110.939 73.8199C111.189 73.9147 111.373 74.0425 111.492 74.2049C111.611 74.3666 111.693 74.584 111.738 74.8551L111.041 74.9491C111.009 74.7337 110.917 74.5648 110.765 74.4443C110.613 74.3227 110.398 74.2627 110.122 74.2627C109.794 74.2627 109.56 74.3164 109.42 74.4241C109.28 74.5318 109.21 74.6586 109.21 74.8038C109.21 74.8962 109.239 74.9781 109.297 75.0519C109.355 75.1288 109.447 75.1916 109.57 75.242C109.642 75.2683 109.851 75.3287 110.2 75.4235C110.705 75.558 111.056 75.6673 111.256 75.753C111.456 75.839 111.612 75.9632 111.726 76.1264C111.839 76.2897 111.897 76.4926 111.897 76.7353C111.897 76.9716 111.827 77.1953 111.688 77.4044C111.549 77.6133 111.35 77.776 111.088 77.8899C110.826 78.0048 110.531 78.0614 110.2 78.0614C109.653 78.0614 109.237 77.9493 108.95 77.7218C108.664 77.4956 108.481 77.1598 108.401 76.7154Z" fill="#3E5DB3"/>
<path d="M115.581 76.4316L116.282 76.5219C116.205 77.0038 116.009 77.3806 115.693 77.6536C115.377 77.9255 114.99 78.0616 114.53 78.0616C113.954 78.0616 113.492 77.8746 113.141 77.4994C112.791 77.1244 112.616 76.5857 112.616 75.8857C112.616 75.4328 112.691 75.0366 112.842 74.6963C112.993 74.3577 113.221 74.1021 113.529 73.9322C113.837 73.7625 114.172 73.6777 114.534 73.6777C114.991 73.6777 115.364 73.7937 115.655 74.0235C115.945 74.2536 116.131 74.5813 116.214 75.0048L115.521 75.1115C115.455 74.8295 115.337 74.6177 115.17 74.4754C115.002 74.3329 114.799 74.2629 114.561 74.2629C114.202 74.2629 113.91 74.3905 113.685 74.6471C113.461 74.9046 113.348 75.3108 113.348 75.8667C113.348 76.4299 113.458 76.8388 113.674 77.0954C113.891 77.35 114.174 77.4777 114.522 77.4777C114.802 77.4777 115.035 77.3919 115.223 77.2212C115.411 77.0493 115.53 76.7864 115.581 76.4316Z" fill="#3E5DB3"/>
<path d="M116.981 77.9676V72.1769H117.694V74.2542C118.027 73.8702 118.448 73.6775 118.955 73.6775C119.266 73.6775 119.537 73.7385 119.766 73.8619C119.997 73.9833 120.161 74.1532 120.26 74.3696C120.359 74.5847 120.409 74.898 120.409 75.3088V77.9678H119.696V75.3088C119.696 74.9539 119.618 74.6945 119.463 74.533C119.309 74.3714 119.09 74.2903 118.807 74.2903C118.597 74.2903 118.397 74.345 118.211 74.4535C118.025 74.563 117.893 74.711 117.813 74.898C117.734 75.0851 117.694 75.3436 117.694 75.6731V77.9678H116.981" fill="#3E5DB3"/>
<path d="M124.464 76.6168L125.201 76.7072C125.085 77.1359 124.869 77.4692 124.555 77.7066C124.241 77.9437 123.839 78.0614 123.351 78.0614C122.735 78.0614 122.247 77.8736 121.887 77.4954C121.526 77.1176 121.345 76.5874 121.345 75.9054C121.345 75.1997 121.528 74.6522 121.892 74.2625C122.256 73.8728 122.73 73.6774 123.311 73.6774C123.874 73.6774 124.333 73.868 124.69 74.2506C125.047 74.6323 125.224 75.1687 125.224 75.8615C125.224 75.9036 125.223 75.9674 125.221 76.0516H122.083C122.108 76.5123 122.24 76.8648 122.475 77.1103C122.71 77.3549 123.003 77.4773 123.355 77.4773C123.617 77.4773 123.839 77.4088 124.024 77.2718C124.209 77.1353 124.355 76.9161 124.464 76.6168ZM122.122 75.4676H124.472C124.441 75.1144 124.35 74.8495 124.203 74.6733C123.975 74.3994 123.681 74.2627 123.319 74.2627C122.991 74.2627 122.715 74.3712 122.493 74.5904C122.27 74.8084 122.146 75.1005 122.122 75.4676Z" fill="#3E5DB3"/>
<path d="M126.178 77.9676V73.7724H126.82V74.4086C126.984 74.1109 127.135 73.9147 127.273 73.8197C127.412 73.7249 127.564 73.6774 127.731 73.6774C127.972 73.6774 128.216 73.7541 128.464 73.9064L128.219 74.5663C128.044 74.4642 127.87 74.4121 127.695 74.4121C127.539 74.4121 127.4 74.4586 127.276 74.5528C127.151 74.6458 127.063 74.7754 127.01 74.9417C126.931 75.1945 126.891 75.4708 126.891 75.7714V77.9674H126.178" fill="#3E5DB3"/>
<path d="M133.073 77.9676L130.822 72.1769H131.655L133.164 76.3841C133.286 76.7208 133.387 77.0366 133.469 77.3313C133.559 77.0157 133.664 76.6997 133.782 76.3841L135.351 72.1769H136.136L133.861 77.9676H133.073Z" fill="#3E5DB3"/>
<path d="M139.257 76.6168L139.994 76.7072C139.877 77.1359 139.662 77.4692 139.348 77.7066C139.033 77.9437 138.632 78.0614 138.143 78.0614C137.528 78.0614 137.04 77.8736 136.679 77.4954C136.318 77.1176 136.138 76.5874 136.138 75.9054C136.138 75.1997 136.321 74.6522 136.686 74.2625C137.05 73.8728 137.522 73.6774 138.104 73.6774C138.666 73.6774 139.126 73.868 139.482 74.2506C139.839 74.6323 140.018 75.1687 140.018 75.8615C140.018 75.9036 140.016 75.9674 140.014 76.0516H136.875C136.902 76.5123 137.032 76.8648 137.268 77.1103C137.502 77.3549 137.795 77.4773 138.147 77.4773C138.409 77.4773 138.632 77.4088 138.817 77.2718C139.002 77.1353 139.149 76.9161 139.257 76.6168ZM136.914 75.4676H139.265C139.233 75.1144 139.143 74.8495 138.994 74.6733C138.767 74.3994 138.474 74.2627 138.112 74.2627C137.784 74.2627 137.508 74.3712 137.285 74.5904C137.062 74.8084 136.939 75.1005 136.914 75.4676Z" fill="#3E5DB3"/>
<path d="M140.971 77.9676V73.7724H141.612V74.4086C141.776 74.1109 141.928 73.9147 142.066 73.8197C142.205 73.7249 142.357 73.6774 142.524 73.6774C142.764 73.6774 143.008 73.7541 143.256 73.9064L143.011 74.5663C142.837 74.4642 142.662 74.4121 142.488 74.4121C142.332 74.4121 142.192 74.4586 142.068 74.5528C141.944 74.6458 141.855 74.7754 141.802 74.9417C141.723 75.1945 141.683 75.4708 141.683 75.7714V77.9674H140.971" fill="#3E5DB3"/>
<path d="M146.651 76.6168L147.388 76.7072C147.272 77.1359 147.056 77.4692 146.742 77.7066C146.427 77.9437 146.026 78.0614 145.537 78.0614C144.922 78.0614 144.434 77.8736 144.073 77.4954C143.713 77.1176 143.532 76.5874 143.532 75.9054C143.532 75.1997 143.715 74.6522 144.08 74.2625C144.444 73.8728 144.916 73.6774 145.498 73.6774C146.06 73.6774 146.521 73.868 146.877 74.2506C147.234 74.6323 147.412 75.1687 147.412 75.8615C147.412 75.9036 147.411 75.9674 147.408 76.0516H144.27C144.296 76.5123 144.427 76.8648 144.662 77.1103C144.896 77.3549 145.19 77.4773 145.541 77.4773C145.803 77.4773 146.026 77.4088 146.211 77.2718C146.396 77.1353 146.543 76.9161 146.651 76.6168ZM144.308 75.4676H146.659C146.627 75.1144 146.537 74.8495 146.39 74.6733C146.163 74.3994 145.868 74.2627 145.506 74.2627C145.179 74.2627 144.903 74.3712 144.679 74.5904C144.457 74.8084 144.333 75.1005 144.308 75.4676Z" fill="#3E5DB3"/>
<path d="M148.377 72.9948V72.1769H149.09V72.9948H148.377ZM148.377 77.9676V73.7724H149.09V77.9676H148.377Z" fill="#3E5DB3"/>
<path d="M150.264 77.9676V73.7724H150.907V74.3694C151.216 73.9084 151.662 73.6776 152.246 73.6776C152.499 73.6776 152.733 73.723 152.945 73.8144C153.158 73.9046 153.317 74.0234 153.422 74.1713C153.528 74.3193 153.603 74.4944 153.645 74.6961C153.671 74.8283 153.684 75.0586 153.684 75.3879V77.9674H152.971V75.4153C152.971 75.126 152.943 74.9086 152.888 74.7655C152.832 74.6222 152.734 74.5081 152.593 74.4223C152.452 74.3366 152.286 74.2935 152.096 74.2935C151.792 74.2935 151.53 74.3903 151.309 74.5821C151.088 74.7748 150.978 75.1389 150.978 75.6765V77.9678H150.264" fill="#3E5DB3"/>
<path d="M160.091 76.6168L160.828 76.7072C160.713 77.1359 160.497 77.4692 160.183 77.7066C159.869 77.9437 159.467 78.0614 158.979 78.0614C158.363 78.0614 157.874 77.8736 157.513 77.4954C157.154 77.1176 156.973 76.5874 156.973 75.9054C156.973 75.1997 157.155 74.6522 157.52 74.2625C157.884 73.8728 158.358 73.6774 158.938 73.6774C159.501 73.6774 159.961 73.868 160.317 74.2506C160.674 74.6323 160.852 75.1687 160.852 75.8615C160.852 75.9036 160.851 75.9674 160.848 76.0516H157.71C157.737 76.5123 157.867 76.8648 158.102 77.1103C158.338 77.3549 158.631 77.4773 158.982 77.4773C159.243 77.4773 159.466 77.4088 159.652 77.2718C159.837 77.1353 159.983 76.9161 160.091 76.6168ZM157.75 75.4676H160.1C160.069 75.1144 159.978 74.8495 159.83 74.6733C159.603 74.3994 159.309 74.2627 158.947 74.2627C158.619 74.2627 158.344 74.3712 158.121 74.5904C157.897 74.8084 157.774 75.1005 157.75 75.4676Z" fill="#3E5DB3"/>
<path d="M162.828 77.158H162.015V77.9678H162.828V77.158Z" fill="#3E5DB3"/>
<path d="M165.909 77.9676L163.658 72.1769H164.49L166 76.3841C166.121 76.7208 166.224 77.0366 166.305 77.3313C166.395 77.0157 166.499 76.6997 166.618 76.3841L168.187 72.1769H168.972L166.697 77.9676H165.909Z" fill="#3E5DB3"/>
<path d="M169.93 77.158H169.117V77.9678H169.93V77.158Z" fill="#3E5DB3"/>
<path d="M41.8505 27.665L37.2849 23.1139L41.6837 18.7278C41.7845 18.6503 41.8816 18.5682 41.9733 18.4768C43.1719 17.282 43.1719 15.3442 41.9733 14.1493C40.7744 12.9543 38.8313 12.9543 37.6319 14.1493C37.5925 14.1886 37.5588 14.2305 37.522 14.2715L32.9684 18.811L28.4145 14.2715C28.378 14.2305 28.343 14.1886 28.3037 14.1493C27.105 12.9543 25.1621 12.9543 23.9624 14.1493C22.7636 15.3442 22.7636 17.282 23.9624 18.4768C24.0547 18.5682 24.1518 18.6501 24.2516 18.7278L28.6514 23.1139L24.085 27.665C24.0446 27.7027 24.0024 27.7363 23.9624 27.7755C22.7636 28.9704 22.7636 30.9082 23.9624 32.1032C25.1619 33.2981 27.105 33.2981 28.3037 32.1032C28.3953 32.0119 28.4775 31.9142 28.5555 31.8146L32.9684 27.4169L37.3811 31.8146C37.4588 31.914 37.5402 32.0119 37.6319 32.1032C38.8313 33.2981 40.7744 33.2981 41.9733 32.1032C43.1719 30.9082 43.1719 28.9704 41.9733 27.7755C41.9339 27.7363 41.8917 27.7027 41.8505 27.665Z" fill="#FABD20"/>
<path d="M37.2026 11.2659C37.2026 13.6582 35.2566 15.598 32.8567 15.598C30.4568 15.598 28.5118 13.6582 28.5118 11.2659C28.5118 8.87319 30.4568 6.93378 32.8567 6.93378C35.2566 6.93378 37.2026 8.87319 37.2026 11.2659Z" fill="#3E5DB3"/>
<path d="M18.7862 45.7695L14.2205 41.2182L18.6203 36.8323C18.7202 36.7548 18.8171 36.6725 18.9088 36.5813C20.1074 35.3863 20.1074 33.4485 18.9088 32.2536C17.7102 31.0588 15.7672 31.0588 14.5684 32.2536C14.529 32.2929 14.4943 32.3349 14.4577 32.376L9.9039 36.9153L5.35005 32.376C5.3135 32.3349 5.27856 32.2929 5.23919 32.2536C4.04055 31.0588 2.09761 31.0588 0.898977 32.2536C-0.299659 33.4485 -0.299659 35.3863 0.898977 36.5813C0.99045 36.6725 1.08778 36.7546 1.18733 36.8323L5.58731 41.2182L1.02155 45.7695C0.980354 45.806 0.938353 45.8408 0.898977 45.88C-0.299659 47.0749 -0.299659 49.0127 0.898977 50.2075C2.09761 51.4024 4.04055 51.4024 5.23919 50.2075C5.33086 50.1163 5.41345 50.0187 5.49119 49.9191L9.9039 45.5203L14.3166 49.9193C14.3943 50.0189 14.4769 50.1165 14.5684 50.2077C15.7672 51.4026 17.7104 51.4026 18.9088 50.2077C20.1072 49.0129 20.1074 47.0751 18.9088 45.8802C18.8694 45.841 18.8272 45.806 18.7862 45.7695Z" fill="#3E5DB3"/>
<path d="M14.1379 29.3701C14.1379 31.7629 12.1923 33.7013 9.79203 33.7013C7.39213 33.7013 5.44717 31.7627 5.44717 29.3701C5.44717 26.9778 7.39213 25.038 9.79203 25.038C12.1923 25.038 14.1379 26.9778 14.1379 29.3701Z" fill="#FABD20"/>
<path d="M64.8033 45.7695L60.2377 41.2182L64.6375 36.8323C64.7375 36.7548 64.8344 36.6725 64.9261 36.5813C66.1247 35.3863 66.1247 33.4485 64.9261 32.2536C63.7272 31.0588 61.7841 31.0588 60.5857 32.2536C60.5463 32.2929 60.5116 32.3349 60.4748 32.376L55.9211 36.9153L51.3673 32.376C51.3308 32.3349 51.2958 32.2929 51.2564 32.2536C50.0578 31.0588 48.1149 31.0588 46.9162 32.2536C45.7166 33.4485 45.7166 35.3863 46.9162 36.5813C47.0077 36.6725 47.1046 36.7546 47.2046 36.8323L51.6046 41.2182L47.0378 45.7695C46.9974 45.806 46.9554 45.8408 46.916 45.88C45.7164 47.0749 45.7164 49.0127 46.916 50.2075C48.1147 51.4024 50.0576 51.4024 51.2562 50.2075C51.3479 50.1163 51.4301 50.0187 51.508 49.9191L55.921 45.5203L60.3337 49.9191C60.4114 50.0187 60.493 50.1163 60.5855 50.2075C61.7841 51.4024 63.7272 51.4024 64.9259 50.2075C66.1245 49.0127 66.1245 47.0749 64.9259 45.88C64.8867 45.841 64.8445 45.806 64.8033 45.7695Z" fill="#3E5DB3"/>
<path d="M60.1554 29.3701C60.1554 31.7629 58.2094 33.7013 55.8095 33.7013C53.4096 33.7013 51.4646 31.7627 51.4646 29.3701C51.4646 26.9778 53.4096 25.038 55.8095 25.038C58.2094 25.038 60.1554 26.9778 60.1554 29.3701Z" fill="#FABD20"/>
<path d="M41.8505 61.5418L37.2849 56.9899L41.6837 52.6038C41.7845 52.5263 41.8816 52.444 41.9733 52.3528C43.1719 51.158 43.1719 49.2208 41.9733 48.0261C40.7744 46.8313 38.8313 46.8313 37.6319 48.0261C37.5925 48.0654 37.5588 48.1075 37.522 48.1485L32.9684 52.687L28.4145 48.1485C28.378 48.1075 28.343 48.0654 28.3037 48.0261C27.105 46.8313 25.1621 46.8313 23.9624 48.0261C22.7636 49.221 22.7636 51.1582 23.9624 52.3528C24.0547 52.444 24.1518 52.5261 24.2516 52.6038L28.6514 56.9899L24.085 61.5418C24.0446 61.5783 24.0024 61.6131 23.9624 61.6523C22.7636 62.8472 22.7636 64.7842 23.9624 65.9788C25.1619 67.1739 27.105 67.1739 28.3037 65.9788C28.3953 65.8877 28.4775 65.791 28.5555 65.6914L32.9684 61.2927L37.3811 65.6914C37.4588 65.791 37.5402 65.8877 37.6319 65.9788C38.8313 67.1739 40.7744 67.1739 41.9733 65.9788C43.1719 64.784 43.1719 62.8472 41.9733 61.6523C41.9339 61.6131 41.8917 61.5783 41.8505 61.5418Z" fill="#3E5DB3"/>
<path d="M37.2026 45.1415C37.2026 47.5341 35.2566 49.4739 32.8567 49.4739C30.4568 49.4739 28.5118 47.5341 28.5118 45.1415C28.5118 42.7492 30.4568 40.8104 32.8567 40.8104C35.2566 40.8102 37.2026 42.7492 37.2026 45.1415Z" fill="#FABD20"/>
</svg>
